<?xml version="1.0" encoding="utf-8" ?>
<svg baseProfile="full" height="376" version="1.1" width="396" xmlns="http://www.w3.org/2000/svg" xmlns:ev="http://www.w3.org/2001/xml-events" xmlns:xlink="http://www.w3.org/1999/xlink"><defs /><circle cx="198" cy="188" fill="black" r="75" /><circle cx="198" cy="188" fill="white" r="60" /><circle cx="220" cy="188" fill="black" r="10" /><circle cx="188" cy="188" fill="#6A1B4D" r="15" /><line stroke="black" stroke-width="15" x1="198" x2="198" y1="188" y2="50" /><circle cx="198" cy="50" fill="#302178" r="25" /><line stroke="black" stroke-width="15" x1="198" x2="278" y1="188" y2="100" /><circle cx="278" cy="100" fill="#76B7B2" r="25" /><line stroke="black" stroke-width="15" x1="198" x2="320" y1="188" y2="188" /><circle cx="320" cy="188" fill="#2E6A34" r="25" /><line stroke="black" stroke-width="15" x1="198" x2="278" y1="188" y2="276" /><circle cx="278" cy="276" fill="#D6C884" r="25" /><line stroke="black" stroke-width="15" x1="198" x2="198" y1="188" y2="326" /><circle cx="198" cy="326" fill="#B36F6F" r="25" /><line stroke="black" stroke-width="15" x1="198" x2="118" y1="188" y2="276" /><circle cx="118" cy="276" fill="#B461A5" r="25" /><line stroke="black" stroke-width="15" x1="198" x2="76" y1="188" y2="188" /><circle cx="76" cy="188" fill="#3D1A71" r="25" /></svg>