<svg xmlns="http://www.w3.org/2000/svg" xmlns:xlink="http://www.w3.org/1999/xlink" contentStyleType="text/css" data-diagram-type="DESCRIPTION" height="442px" preserveAspectRatio="none" style="width:572px;height:442px;background:#FFFFFF;" version="1.1" viewBox="0 0 572 442" width="572px" zoomAndPan="magnify"><title>Covid LAPIS instances</title><defs/><g><g class="title" data-source-line="1"><text fill="#000000" font-family="sans-serif" font-size="14" font-weight="bold" lengthAdjust="spacing" textLength="152.0674" x="203.3041" y="24.9659">Covid LAPIS instances</text></g><!--cluster Dashboards--><g class="cluster" data-entity="Dashboards" data-source-line="5" data-uid="ent0003" id="cluster_Dashboards"><polygon fill="none" points="145.5,56.0679,155.5,46.0679,326.5,46.0679,326.5,415.0679,316.5,425.0679,145.5,425.0679,145.5,56.0679" style="stroke:#181818;stroke-width:1;"/><line style="stroke:#181818;stroke-width:1;" x1="316.5" x2="326.5" y1="56.0679" y2="46.0679"/><line style="stroke:#181818;stroke-width:1;" x1="145.5" x2="316.5" y1="56.0679" y2="56.0679"/><line style="stroke:#181818;stroke-width:1;" x1="316.5" x2="316.5" y1="56.0679" y2="425.0679"/><text fill="#000000" font-family="sans-serif" font-size="14" font-weight="bold" lengthAdjust="spacing" textLength="83.1317" x="190.4342" y="74.0339">Dashboards</text></g><!--entity website--><g class="entity" data-entity="website" data-source-line="6" data-uid="ent0004" id="entity_website"><rect fill="#F1F1F1" height="49.0679" rx="2.5" ry="2.5" style="stroke:#181818;stroke-width:0.5;" width="92.7938" x="190" y="89.0679"/><rect fill="#F1F1F1" height="10" style="stroke:#181818;stroke-width:0.5;" width="15" x="262.7938" y="94.0679"/><rect fill="#F1F1F1" height="2" style="stroke:#181818;stroke-width:0.5;" width="4" x="260.7938" y="96.0679"/><rect fill="#F1F1F1" height="2" style="stroke:#181818;stroke-width:0.5;" width="4" x="260.7938" y="100.0679"/><text fill="#000000" font-family="sans-serif" font-size="14" lengthAdjust="spacing" textLength="52.7938" x="205" y="124.0339">Website</text></g><!--entity backend--><g class="entity" data-entity="backend" data-source-line="7" data-uid="ent0005" id="entity_backend"><rect fill="#F1F1F1" height="49.0679" rx="2.5" ry="2.5" style="stroke:#181818;stroke-width:0.5;" width="96.3078" x="161.5" y="232.0679"/><rect fill="#F1F1F1" height="10" style="stroke:#181818;stroke-width:0.5;" width="15" x="237.8078" y="237.0679"/><rect fill="#F1F1F1" height="2" style="stroke:#181818;stroke-width:0.5;" width="4" x="235.8078" y="239.0679"/><rect fill="#F1F1F1" height="2" style="stroke:#181818;stroke-width:0.5;" width="4" x="235.8078" y="243.0679"/><text fill="#000000" font-family="sans-serif" font-size="14" lengthAdjust="spacing" textLength="56.3078" x="176.5" y="267.0339">Backend</text></g><!--entity db--><g class="entity" data-entity="db" data-source-line="8" data-uid="ent0006" id="entity_db"><rect fill="#F1F1F1" height="49.0679" rx="2.5" ry="2.5" style="stroke:#181818;stroke-width:0.5;" width="117.0137" x="162" y="360.0679"/><rect fill="#F1F1F1" height="10" style="stroke:#181818;stroke-width:0.5;" width="15" x="259.0137" y="365.0679"/><rect fill="#F1F1F1" height="2" style="stroke:#181818;stroke-width:0.5;" width="4" x="257.0137" y="367.0679"/><rect fill="#F1F1F1" height="2" style="stroke:#181818;stroke-width:0.5;" width="4" x="257.0137" y="371.0679"/><text fill="#000000" font-family="sans-serif" font-size="14" lengthAdjust="spacing" textLength="77.0137" x="177" y="395.0339">PostgresDB</text></g><!--entity user--><g class="entity" data-entity="user" data-source-line="3" data-uid="ent0002" id="entity_user"><ellipse cx="21.3089" cy="82.5679" fill="#F1F1F1" rx="8" ry="8" style="stroke:#181818;stroke-width:0.5;"/><path d="M21.3089,90.5679 L21.3089,117.5679 M8.3089,98.5679 L34.3089,98.5679 M21.3089,117.5679 L8.3089,132.5679 M21.3089,117.5679 L34.3089,132.5679" fill="none" style="stroke:#181818;stroke-width:0.5;"/><text fill="#000000" font-family="sans-serif" font-size="14" lengthAdjust="spacing" textLength="30.6179" x="6" y="149.0339">User</text></g><!--entity lapis--><g class="entity" data-entity="lapis" data-source-line="11" data-uid="ent0007" id="entity_lapis"><rect fill="#F1F1F1" height="35.0679" rx="2.5" ry="2.5" style="stroke:#181818;stroke-width:0.5;" width="118.6756" x="448" y="98.0679"/><rect fill="#F1F1F1" height="35.0679" rx="2.5" ry="2.5" style="stroke:#181818;stroke-width:0.5;" width="118.6756" x="444" y="94.0679"/><text fill="#000000" font-family="sans-serif" font-size="14" lengthAdjust="spacing" textLength="102.6756" x="452" y="117.0339">LAPIS instances</text></g><!--entity gh--><g class="entity" data-entity="gh" data-source-line="12" data-uid="ent0008" id="entity_gh"><rect fill="#F1F1F1" height="49.0679" rx="2.5" ry="2.5" style="stroke:#181818;stroke-width:0.5;" width="116.2997" x="342.5" y="232.0679"/><rect fill="#F1F1F1" height="10" style="stroke:#181818;stroke-width:0.5;" width="15" x="438.7997" y="237.0679"/><rect fill="#F1F1F1" height="2" style="stroke:#181818;stroke-width:0.5;" width="4" x="436.7997" y="239.0679"/><rect fill="#F1F1F1" height="2" style="stroke:#181818;stroke-width:0.5;" width="4" x="436.7997" y="243.0679"/><text fill="#000000" font-family="sans-serif" font-size="14" lengthAdjust="spacing" textLength="76.2997" x="357.5" y="267.0339">GitHub App</text></g><!--link user to website--><g class="link" data-entity-1="user" data-entity-2="website" data-source-line="14" data-uid="lnk9" id="link_user_website"><path d="M37.31,113.5679 C69.02,113.5679 135.48,113.5679 183.7,113.5679" fill="none" id="user-to-website" style="stroke:#181818;stroke-width:1;"/><polygon fill="#181818" points="189.7,113.5679,180.7,109.5679,184.7,113.5679,180.7,117.5679,189.7,113.5679" style="stroke:#181818;stroke-width:1;"/><text fill="#000000" font-family="sans-serif" font-size="13" lengthAdjust="spacing" textLength="116.2461" x="55.5" y="106.4649">Access dashboards</text></g><!--link website to backend--><g class="link" data-entity-1="website" data-entity-2="backend" data-source-line="15" data-uid="lnk10" id="link_website_backend"><path d="M231.98,138.1679 C227,164.1979 220.1484,199.935 215.1584,225.995" fill="none" id="website-to-backend" style="stroke:#181818;stroke-width:1;stroke-dasharray:1.0,3.0;"/><polygon fill="#181818" points="214.03,231.8879,219.6512,223.8008,214.9703,226.9771,211.794,222.2962,214.03,231.8879" style="stroke:#181818;stroke-width:1;"/><text fill="#000000" font-family="sans-serif" font-size="13" lengthAdjust="spacing" textLength="112.2681" x="223.5" y="197.9649">subscriptions data</text></g><!--link backend to db--><g class="link" data-entity-1="backend" data-entity-2="db" data-source-line="16" data-uid="lnk11" id="link_backend_db"><path d="M211.57,281.2679 C213.54,303.7979 215.9591,331.5106 217.9191,354.0006" fill="none" id="backend-to-db" style="stroke:#181818;stroke-width:1;stroke-dasharray:1.0,3.0;"/><polygon fill="#181818" points="218.44,359.9779,221.6435,350.6646,218.0059,354.9968,213.6737,351.3592,218.44,359.9779" style="stroke:#181818;stroke-width:1;"/><text fill="#000000" font-family="sans-serif" font-size="13" lengthAdjust="spacing" textLength="112.2681" x="216.5" y="325.9649">subscriptions data</text></g><!--link website to lapis--><g class="link" data-entity-1="website" data-entity-2="lapis" data-source-line="17" data-uid="lnk12" id="link_website_lapis"><path d="M283.05,113.5679 C327.56,113.5679 388.95,113.5679 437.9,113.5679" fill="none" id="website-to-lapis" style="stroke:#181818;stroke-width:1;"/><polygon fill="#181818" points="443.9,113.5679,434.9,109.5679,438.9,113.5679,434.9,117.5679,443.9,113.5679" style="stroke:#181818;stroke-width:1;"/><text fill="#000000" font-family="sans-serif" font-size="13" lengthAdjust="spacing" textLength="124.5271" x="301.5" y="106.4649">Query genomic data</text></g><!--link website to gh--><g class="link" data-entity-1="website" data-entity-2="gh" data-source-line="18" data-uid="lnk13" id="link_website_gh"><path d="M281.26,138.2079 C301.71,150.1579 325.55,165.7879 344.5,183.0679 C360.37,197.5279 371.6725,211.9525 382.0325,227.0325" fill="none" id="website-to-gh" style="stroke:#181818;stroke-width:1;stroke-dasharray:1.0,3.0;"/><polygon fill="#181818" points="385.43,231.9779,383.6307,222.2948,382.5987,227.8568,377.0368,226.8248,385.43,231.9779" style="stroke:#181818;stroke-width:1;"/><text fill="#000000" font-family="sans-serif" font-size="13" lengthAdjust="spacing" textLength="34.06" x="362.5" y="197.9649">Login</text></g><!--SRC=[TOzDQWCn38NtEeNmFXVe8Z1fe2raaL1Ar_uH7jE9PInFGYdDsMjdC861QYF1-_JqL4AP2DKpNuB3mt1yUySGfUXeIHI0jeKpVWXbr89pxG2HNTtOQnaDw-n4uGzWBSldn95YmKyo4WgrbUiohe2TjbyKNGFCCgw08qlncMI_Qumpy0jWUPh8bi1HKAsZDcpIAGWyJDHBAA-pmI6bk-v7WFO2RhOz5pwX6cmrg4SU3q5NRxTj3zX8cOtO7DAImUcY5NIveSxyHtN3JQwtxpaRUPefVwEdoETWLsJpysEZ3kn3LF07]--></g></svg>