<svg xmlns="http://www.w3.org/2000/svg" xmlns:xlink="http://www.w3.org/1999/xlink" contentStyleType="text/css" data-diagram-type="DESCRIPTION" height="531px" preserveAspectRatio="none" style="width:804px;height:531px;background:#FFFFFF;" version="1.1" viewBox="0 0 804 531" width="804px" zoomAndPan="magnify"><title>GenSpectrum - Level 1</title><defs/><g><text fill="#000000" font-family="sans-serif" font-size="14" font-weight="bold" lengthAdjust="spacing" textLength="164.999" x="312.5714" y="23.5352">GenSpectrum - Level 1</text><!--cluster GenSpectrum--><g class="cluster" data-entity="GenSpectrum" data-source-line="7" data-uid="ent0005" id="cluster_GenSpectrum"><polygon fill="none" points="104.18,53.4883,114.18,43.4883,484.18,43.4883,484.18,504.4383,474.18,514.4383,104.18,514.4383,104.18,53.4883" style="stroke:#181818;stroke-width:1;"/><line style="stroke:#181818;stroke-width:1;" x1="474.18" x2="484.18" y1="53.4883" y2="43.4883"/><line style="stroke:#181818;stroke-width:1;" x1="104.18" x2="474.18" y1="53.4883" y2="53.4883"/><line style="stroke:#181818;stroke-width:1;" x1="474.18" x2="474.18" y1="53.4883" y2="514.4383"/><text fill="#000000" font-family="sans-serif" font-size="14" font-weight="bold" lengthAdjust="spacing" textLength="95.5732" x="242.3934" y="70.0234">GenSpectrum</text></g><!--entity website--><g class="entity" data-entity="website" data-source-line="8" data-uid="ent0006" id="entity_website"><rect fill="#F1F1F1" height="46.4883" rx="2.5" ry="2.5" style="stroke:#181818;stroke-width:0.5;" width="92.8076" x="119.78" y="83.4883"/><rect fill="#F1F1F1" height="10" style="stroke:#181818;stroke-width:0.5;" width="15" x="192.5876" y="88.4883"/><rect fill="#F1F1F1" height="2" style="stroke:#181818;stroke-width:0.5;" width="4" x="190.5876" y="90.4883"/><rect fill="#F1F1F1" height="2" style="stroke:#181818;stroke-width:0.5;" width="4" x="190.5876" y="94.4883"/><text fill="#000000" font-family="sans-serif" font-size="14" lengthAdjust="spacing" textLength="52.8076" x="134.78" y="117.0234">Website</text></g><!--entity backend--><g class="entity" data-entity="backend" data-source-line="9" data-uid="ent0007" id="entity_backend"><rect fill="#F1F1F1" height="46.4883" rx="2.5" ry="2.5" style="stroke:#181818;stroke-width:0.5;" width="96.4375" x="119.96" y="221.9783"/><rect fill="#F1F1F1" height="10" style="stroke:#181818;stroke-width:0.5;" width="15" x="196.3975" y="226.9783"/><rect fill="#F1F1F1" height="2" style="stroke:#181818;stroke-width:0.5;" width="4" x="194.3975" y="228.9783"/><rect fill="#F1F1F1" height="2" style="stroke:#181818;stroke-width:0.5;" width="4" x="194.3975" y="232.9783"/><text fill="#000000" font-family="sans-serif" font-size="14" lengthAdjust="spacing" textLength="56.4375" x="134.96" y="255.5134">Backend</text></g><!--entity seeder--><g class="entity" data-entity="seeder" data-source-line="10" data-uid="ent0008" id="entity_seeder"><rect fill="#F1F1F1" height="46.4883" rx="2.5" ry="2.5" style="stroke:#181818;stroke-width:0.5;" width="157.8311" x="256.27" y="451.9483"/><rect fill="#F1F1F1" height="10" style="stroke:#181818;stroke-width:0.5;" width="15" x="394.1011" y="456.9483"/><rect fill="#F1F1F1" height="2" style="stroke:#181818;stroke-width:0.5;" width="4" x="392.1011" y="458.9483"/><rect fill="#F1F1F1" height="2" style="stroke:#181818;stroke-width:0.5;" width="4" x="392.1011" y="462.9483"/><text fill="#000000" font-family="sans-serif" font-size="14" lengthAdjust="spacing" textLength="117.8311" x="271.27" y="485.4834">Collection Seeder</text></g><!--entity db--><g class="entity" data-entity="db" data-source-line="11" data-uid="ent0009" id="entity_db"><path d="M299.85,355.4583 C299.85,345.4583 341.1825,345.4583 341.1825,345.4583 C341.1825,345.4583 382.515,345.4583 382.515,355.4583 L382.515,380.9466 C382.515,390.9466 341.1825,390.9466 341.1825,390.9466 C341.1825,390.9466 299.85,390.9466 299.85,380.9466 L299.85,355.4583" fill="#F1F1F1" style="stroke:#181818;stroke-width:0.5;"/><path d="M299.85,355.4583 C299.85,365.4583 341.1825,365.4583 341.1825,365.4583 C341.1825,365.4583 382.515,365.4583 382.515,355.4583" fill="none" style="stroke:#181818;stroke-width:0.5;"/><text fill="#000000" font-family="sans-serif" font-size="14" lengthAdjust="spacing" textLength="62.665" x="309.85" y="382.9934">Database</text></g><!--entity loculus--><g class="entity" data-entity="loculus" data-source-line="12" data-uid="ent0010" id="entity_loculus"><rect fill="#F1F1F1" height="46.4883" rx="2.5" ry="2.5" style="stroke:#181818;stroke-width:0.5;" width="91.7959" x="376.28" y="83.4883"/><rect fill="#F1F1F1" height="10" style="stroke:#181818;stroke-width:0.5;" width="15" x="448.0759" y="88.4883"/><rect fill="#F1F1F1" height="2" style="stroke:#181818;stroke-width:0.5;" width="4" x="446.0759" y="90.4883"/><rect fill="#F1F1F1" height="2" style="stroke:#181818;stroke-width:0.5;" width="4" x="446.0759" y="94.4883"/><text fill="#000000" font-family="sans-serif" font-size="14" lengthAdjust="spacing" textLength="51.7959" x="391.28" y="117.0234">Loculus</text></g><!--entity user--><g class="entity" data-entity="user" data-source-line="3" data-uid="ent0002" id="entity_user"><ellipse cx="21.1826" cy="76.9883" fill="#F1F1F1" rx="8" ry="8" style="stroke:#181818;stroke-width:0.5;"/><path d="M21.1826,84.9883 L21.1826,111.9883 M8.1826,92.9883 L34.1826,92.9883 M21.1826,111.9883 L8.1826,126.9883 M21.1826,111.9883 L34.1826,126.9883" fill="none" style="stroke:#181818;stroke-width:0.5;"/><text fill="#000000" font-family="sans-serif" font-size="14" lengthAdjust="spacing" textLength="30.3652" x="6" y="142.0234">User</text></g><!--entity ncbi--><g class="entity" data-entity="ncbi" data-source-line="4" data-uid="ent0003" id="entity_ncbi"><rect fill="#F1F1F1" height="46.4883" rx="2.5" ry="2.5" style="stroke:#181818;stroke-width:0.5;" width="72.1152" x="558.13" y="83.4883"/><rect fill="#F1F1F1" height="10" style="stroke:#181818;stroke-width:0.5;" width="15" x="610.2452" y="88.4883"/><rect fill="#F1F1F1" height="2" style="stroke:#181818;stroke-width:0.5;" width="4" x="608.2452" y="90.4883"/><rect fill="#F1F1F1" height="2" style="stroke:#181818;stroke-width:0.5;" width="4" x="608.2452" y="94.4883"/><text fill="#000000" font-family="sans-serif" font-size="14" lengthAdjust="spacing" textLength="32.1152" x="573.13" y="117.0234">NCBI</text></g><!--entity vemi--><g class="entity" data-entity="vemi" data-source-line="5" data-uid="ent0004" id="entity_vemi"><path d="M513.3594,461.3916 C517.629,451.1726 527.0861,449.9928 533.1479,459.6031 C539.3563,449.6806 548.8752,449.6672 555.2788,459.3832 C561.3634,452.2425 567.1147,452.6612 572.7381,459.9415 C577.2435,450.6164 585.7793,449.9449 592.1617,457.8222 C596.3206,446.2008 605.6183,447.644 612.4444,454.9665 C619.2059,443.3166 625.8912,443.0844 633.3487,454.331 C637.4906,445.026 645.6155,447.0244 650.2481,453.8159 C658.3951,445.894 665.4261,445.9351 670.5824,457.0161 C676.7162,446.5973 684.251,447.811 691.3464,455.9395 C698.8226,446.6373 704.9955,446.4637 711.1609,457.2334 C719.1021,448.676 725.4735,449.5115 731.0727,459.7186 C737.415,449.4824 746.7155,451.288 751.4777,461.3101 C757.1494,452.4032 764.5065,453.5032 768.9857,462.4776 C774.6698,453.2172 780.6932,450.8505 788.2765,460.5446 C792.3596,461.7202 793.141,464.0859 791.136,467.6958 C796.1415,469.2757 797.1418,472.6787 793.0874,476.3108 C795.7193,479.8681 794.4462,482.327 790.2932,483.086 C794.2631,486.9657 793.2881,491.5962 788.0724,493.5212 C782.0906,502.8544 775.9878,503.0481 770.0298,493.4984 C765.0554,502.4905 756.6122,502.4284 751.0263,494.1721 C746.2105,504.657 737.8932,503.7715 731.9504,495.3066 C725.4043,505.253 715.0758,504.3013 710.3712,493.4004 C704.3091,503.1424 698.0287,504.7402 690.8619,494.4777 C686.8351,502.4253 678.6037,504.9333 673.3979,495.6743 C668.819,506.5659 658.532,507.8478 652.3832,497.2064 C646.438,506.8376 637.9593,506.4488 632.457,496.7498 C626.3223,504.0158 617.9069,504.3387 613.5701,494.7367 C608.4955,506.3266 598.9802,507.4061 591.8996,496.685 C584.8362,504.6615 577.9931,502.7636 574.2176,493.3432 C567.9107,502.7036 559.0435,501.4226 553.7353,492.24 C548.2536,502.9868 538.9536,501.8931 532.6656,493.1098 C526.5077,502.3205 517.803,502.2689 512.874,491.8695 C508.2296,490.3428 506.902,487.0922 510.8273,483.4758 C506.9764,482.8282 505.4535,479.7416 507.5011,476.3433 C504.2923,472.2121 505.1124,469.342 510.3858,468.2247 C508.1499,464.6378 509.6318,462.3834 513.3594,461.3916" fill="#F1F1F1" style="stroke:#181818;stroke-width:0.5;"/><text fill="#000000" font-family="sans-serif" font-size="14" lengthAdjust="spacing" textLength="260.873" x="519.75" y="480.4834">Various external mutation information</text></g><!--link user to website--><g class="link" data-entity-1="user" data-entity-2="website" data-source-line="15" data-uid="lnk11" id="link_user_website"><path d="M36.7,106.7283 C56.28,106.7283 84.84,106.7283 113.33,106.7283" fill="none" id="user-to-website" style="stroke:#181818;stroke-width:1;"/><polygon fill="#181818" points="119.33,106.7283,110.33,102.7283,114.33,106.7283,110.33,110.7283,119.33,106.7283" style="stroke:#181818;stroke-width:1;"/><text fill="#000000" font-family="sans-serif" font-size="13" lengthAdjust="spacing" textLength="47.9375" x="54.57" y="100.2966">Interact</text></g><!--link website to backend--><g class="link" data-entity-1="website" data-entity-2="backend" data-source-line="16" data-uid="lnk12" id="link_website_backend"><path d="M166.51,130.2683 C166.88,155.5583 167.3923,190.3389 167.7623,215.6489" fill="none" id="website-to-backend" style="stroke:#181818;stroke-width:1;"/><polygon fill="#181818" points="167.85,221.6483,171.718,212.5908,167.7769,216.6488,163.7189,212.7077,167.85,221.6483" style="stroke:#181818;stroke-width:1;"/><text fill="#000000" font-family="sans-serif" font-size="13" lengthAdjust="spacing" textLength="208.2666" x="168.36" y="188.5466">Subscriptions, collections, config</text></g><!--link backend to db--><g class="link" data-entity-1="backend" data-entity-2="db" data-source-line="17" data-uid="lnk13" id="link_backend_db"><path d="M200.32,268.6883 C231.49,290.4883 273.5833,319.9293 304.5933,341.6193" fill="none" id="backend-to-db" style="stroke:#181818;stroke-width:1;"/><polygon fill="#181818" points="309.51,345.0583,304.4277,336.6221,305.4128,342.1925,299.8424,343.1776,309.51,345.0583" style="stroke:#181818;stroke-width:1;"/><text fill="#000000" font-family="sans-serif" font-size="13" lengthAdjust="spacing" textLength="41.6216" x="266.04" y="312.0266">Persist</text></g><!--link website to loculus--><g class="link" data-entity-1="website" data-entity-2="loculus" data-source-line="18" data-uid="lnk14" id="link_website_loculus"><path d="M212.84,106.7283 C259.13,106.7283 323.67,106.7283 369.85,106.7283" fill="none" id="website-to-loculus" style="stroke:#181818;stroke-width:1;"/><polygon fill="#181818" points="375.85,106.7283,366.85,102.7283,370.85,106.7283,366.85,110.7283,375.85,106.7283" style="stroke:#181818;stroke-width:1;"/><text fill="#000000" font-family="sans-serif" font-size="13" lengthAdjust="spacing" textLength="127.1055" x="230.94" y="100.2966">Query genomic data</text></g><!--reverse link backend to seeder--><g class="link" data-entity-1="backend" data-entity-2="seeder" data-source-line="19" data-uid="lnk16" id="link_backend_seeder"><path d="M162.6948,274.835 C157.8948,305.255 154.94,353.8083 179.18,390.9483 C197.72,419.3583 229.32,438.7483 259.25,451.6183" fill="none" id="backend-backto-seeder" style="stroke:#181818;stroke-width:1;"/><polygon fill="#181818" points="163.63,268.9083,158.2761,277.1748,162.8507,273.8472,166.1784,278.4217,163.63,268.9083" style="stroke:#181818;stroke-width:1;"/><text fill="#000000" font-family="sans-serif" font-size="13" lengthAdjust="spacing" textLength="101.1436" x="180.18" y="373.2766">Seed collections</text></g><!--link loculus to ncbi--><g class="link" data-entity-1="loculus" data-entity-2="ncbi" data-source-line="20" data-uid="lnk17" id="link_loculus_ncbi"><path d="M468.28,106.7283 C496.34,106.7283 525.68,106.7283 551.77,106.7283" fill="none" id="loculus-to-ncbi" style="stroke:#181818;stroke-width:1;"/><polygon fill="#181818" points="557.77,106.7283,548.77,102.7283,552.77,106.7283,548.77,110.7283,557.77,106.7283" style="stroke:#181818;stroke-width:1;"/><text fill="#000000" font-family="sans-serif" font-size="13" lengthAdjust="spacing" textLength="54.2852" x="486.1" y="100.2966">Pull data</text></g><!--link seeder to vemi--><g class="link" data-entity-1="seeder" data-entity-2="vemi" data-source-line="21" data-uid="lnk18" id="link_seeder_vemi"><path d="M414.26,475.1983 C441.69,475.1983 467.38,475.1983 498.45,475.1983" fill="none" id="seeder-to-vemi" style="stroke:#181818;stroke-width:1;"/><polygon fill="#181818" points="504.45,475.1983,495.45,471.1983,499.45,475.1983,495.45,479.1983,504.45,475.1983" style="stroke:#181818;stroke-width:1;"/><text fill="#000000" font-family="sans-serif" font-size="13" lengthAdjust="spacing" textLength="54.2852" x="432.42" y="468.7666">Pull data</text></g><!--link db to seeder--><!--SRC=[NL6xJiGm4EptArQkIK5BGN67X4uw8L0458Z2Zxt3mh4ZFmuGuj_nEeauaYPZp-pix3hRx0Z5BVb-99rZ6R33FPt8uQK0a3g7Y8-98ig4fVv1Xs4Cddn6SRVTx0GJNYiBseLYK3p9Q4D9I9-PefSEXv9bji6ZzOSGXuPRrOa62-23-Hz0u3TW_VuQFPDADXFNV4nm9TX8_KxUi41DS2KGs-1SjUSOFP6Xs1Aa1flMo2oLJ8Gt2wYyKIkVVT35rU4gvoO8Fm2y5-nYTxt4moiKEr_dh_iJi5nsfYhcVApeYqewsf5JfOlQPOdO3lvWZm8MUQirYilkAIQRpdsvyno71G-5uXSUoOV1wZQOW6bIxCegGhq-RonWyMcc_AwjPN5kPSGqF-2AhX6xbpTh3FdNgfWN_0i0]--></g></svg>