<svg xmlns="http://www.w3.org/2000/svg" xmlns:xlink="http://www.w3.org/1999/xlink" contentStyleType="text/css" data-diagram-type="DESCRIPTION" height="604px" preserveAspectRatio="none" style="width:982px;height:604px;background:#FFFFFF;" version="1.1" viewBox="0 0 982 604" width="982px" zoomAndPan="magnify"><title>GenSpectrum - Level 1</title><defs/><g><text fill="#000000" font-family="sans-serif" font-size="14" font-weight="bold" lengthAdjust="spacing" textLength="164.999" x="401.8572" y="23.5352">GenSpectrum - Level 1</text><!--cluster GenSpectrum--><g class="cluster" data-entity="GenSpectrum" data-source-line="13" data-uid="ent0007" id="cluster_GenSpectrum"><polygon fill="none" points="104.18,102.6483,114.18,92.6483,484.18,92.6483,484.18,577.5983,474.18,587.5983,104.18,587.5983,104.18,102.6483" style="stroke:#181818;stroke-width:1;"/><line style="stroke:#181818;stroke-width:1;" x1="474.18" x2="484.18" y1="102.6483" y2="92.6483"/><line style="stroke:#181818;stroke-width:1;" x1="104.18" x2="474.18" y1="102.6483" y2="102.6483"/><line style="stroke:#181818;stroke-width:1;" x1="474.18" x2="474.18" y1="102.6483" y2="587.5983"/><text fill="#000000" font-family="sans-serif" font-size="14" font-weight="bold" lengthAdjust="spacing" textLength="95.5732" x="242.3934" y="119.1834">GenSpectrum</text></g><!--entity website--><g class="entity" data-entity="website" data-source-line="14" data-uid="ent0008" id="entity_website"><rect fill="#F1F1F1" height="46.4883" rx="2.5" ry="2.5" style="stroke:#181818;stroke-width:0.5;" width="92.8076" x="119.78" y="156.6483"/><rect fill="#F1F1F1" height="10" style="stroke:#181818;stroke-width:0.5;" width="15" x="192.5876" y="161.6483"/><rect fill="#F1F1F1" height="2" style="stroke:#181818;stroke-width:0.5;" width="4" x="190.5876" y="163.6483"/><rect fill="#F1F1F1" height="2" style="stroke:#181818;stroke-width:0.5;" width="4" x="190.5876" y="167.6483"/><text fill="#000000" font-family="sans-serif" font-size="14" lengthAdjust="spacing" textLength="52.8076" x="134.78" y="190.1834">Website</text></g><!--entity backend--><g class="entity" data-entity="backend" data-source-line="15" data-uid="ent0009" id="entity_backend"><rect fill="#F1F1F1" height="46.4883" rx="2.5" ry="2.5" style="stroke:#181818;stroke-width:0.5;" width="96.4375" x="119.96" y="295.1383"/><rect fill="#F1F1F1" height="10" style="stroke:#181818;stroke-width:0.5;" width="15" x="196.3975" y="300.1383"/><rect fill="#F1F1F1" height="2" style="stroke:#181818;stroke-width:0.5;" width="4" x="194.3975" y="302.1383"/><rect fill="#F1F1F1" height="2" style="stroke:#181818;stroke-width:0.5;" width="4" x="194.3975" y="306.1383"/><text fill="#000000" font-family="sans-serif" font-size="14" lengthAdjust="spacing" textLength="56.4375" x="134.96" y="328.6734">Backend</text></g><!--entity seeder--><g class="entity" data-entity="seeder" data-source-line="16" data-uid="ent0010" id="entity_seeder"><rect fill="#F1F1F1" height="46.4883" rx="2.5" ry="2.5" style="stroke:#181818;stroke-width:0.5;" width="157.8311" x="256.27" y="525.1083"/><rect fill="#F1F1F1" height="10" style="stroke:#181818;stroke-width:0.5;" width="15" x="394.1011" y="530.1083"/><rect fill="#F1F1F1" height="2" style="stroke:#181818;stroke-width:0.5;" width="4" x="392.1011" y="532.1083"/><rect fill="#F1F1F1" height="2" style="stroke:#181818;stroke-width:0.5;" width="4" x="392.1011" y="536.1083"/><text fill="#000000" font-family="sans-serif" font-size="14" lengthAdjust="spacing" textLength="117.8311" x="271.27" y="558.6434">Collection Seeder</text></g><!--entity db--><g class="entity" data-entity="db" data-source-line="17" data-uid="ent0011" id="entity_db"><path d="M299.85,428.6183 C299.85,418.6183 341.1825,418.6183 341.1825,418.6183 C341.1825,418.6183 382.515,418.6183 382.515,428.6183 L382.515,454.1066 C382.515,464.1066 341.1825,464.1066 341.1825,464.1066 C341.1825,464.1066 299.85,464.1066 299.85,454.1066 L299.85,428.6183" fill="#F1F1F1" style="stroke:#181818;stroke-width:0.5;"/><path d="M299.85,428.6183 C299.85,438.6183 341.1825,438.6183 341.1825,438.6183 C341.1825,438.6183 382.515,438.6183 382.515,428.6183" fill="none" style="stroke:#181818;stroke-width:0.5;"/><text fill="#000000" font-family="sans-serif" font-size="14" lengthAdjust="spacing" textLength="62.665" x="309.85" y="456.1534">Database</text></g><!--entity loculus--><g class="entity" data-entity="loculus" data-source-line="18" data-uid="ent0012" id="entity_loculus"><rect fill="#F1F1F1" height="46.4883" rx="2.5" ry="2.5" style="stroke:#181818;stroke-width:0.5;" width="91.7959" x="376.28" y="156.6483"/><rect fill="#F1F1F1" height="10" style="stroke:#181818;stroke-width:0.5;" width="15" x="448.0759" y="161.6483"/><rect fill="#F1F1F1" height="2" style="stroke:#181818;stroke-width:0.5;" width="4" x="446.0759" y="163.6483"/><rect fill="#F1F1F1" height="2" style="stroke:#181818;stroke-width:0.5;" width="4" x="446.0759" y="167.6483"/><text fill="#000000" font-family="sans-serif" font-size="14" lengthAdjust="spacing" textLength="51.7959" x="391.28" y="190.1834">Loculus</text></g><!--entity user--><g class="entity" data-entity="user" data-source-line="7" data-uid="ent0002" id="entity_user"><ellipse cx="21.1826" cy="150.1483" fill="#F1F1F1" rx="8" ry="8" style="stroke:#181818;stroke-width:0.5;"/><path d="M21.1826,158.1483 L21.1826,185.1483 M8.1826,166.1483 L34.1826,166.1483 M21.1826,185.1483 L8.1826,200.1483 M21.1826,185.1483 L34.1826,200.1483" fill="none" style="stroke:#181818;stroke-width:0.5;"/><text fill="#000000" font-family="sans-serif" font-size="14" lengthAdjust="spacing" textLength="30.3652" x="6" y="215.1834">User</text></g><!--entity ncbi--><g class="entity" data-entity="ncbi" data-source-line="8" data-uid="ent0003" id="entity_ncbi"><rect fill="#F1F1F1" height="62.9766" rx="2.5" ry="2.5" style="stroke:#181818;stroke-width:0.5;stroke-dasharray:7.0,7.0;" width="112.2871" x="559.04" y="148.3983"/><rect fill="#F1F1F1" height="10" style="stroke:#181818;stroke-width:0.5;stroke-dasharray:7.0,7.0;" width="15" x="651.3271" y="153.3983"/><rect fill="#F1F1F1" height="2" style="stroke:#181818;stroke-width:0.5;stroke-dasharray:7.0,7.0;" width="4" x="649.3271" y="155.3983"/><rect fill="#F1F1F1" height="2" style="stroke:#181818;stroke-width:0.5;stroke-dasharray:7.0,7.0;" width="4" x="649.3271" y="159.3983"/><text fill="#000000" font-family="sans-serif" font-size="14" font-style="italic" lengthAdjust="spacing" textLength="70.2871" x="575.04" y="181.9334">&#171;external&#187;</text><text fill="#000000" font-family="sans-serif" font-size="14" lengthAdjust="spacing" textLength="32.1152" x="594.1259" y="198.4217">NCBI</text></g><!--entity github--><g class="entity" data-entity="github" data-source-line="9" data-uid="ent0004" id="entity_github"><rect fill="#F1F1F1" height="62.9766" rx="2.5" ry="2.5" style="stroke:#181818;stroke-width:0.5;stroke-dasharray:7.0,7.0;" width="112.2871" x="706.04" y="148.3983"/><rect fill="#F1F1F1" height="10" style="stroke:#181818;stroke-width:0.5;stroke-dasharray:7.0,7.0;" width="15" x="798.3271" y="153.3983"/><rect fill="#F1F1F1" height="2" style="stroke:#181818;stroke-width:0.5;stroke-dasharray:7.0,7.0;" width="4" x="796.3271" y="155.3983"/><rect fill="#F1F1F1" height="2" style="stroke:#181818;stroke-width:0.5;stroke-dasharray:7.0,7.0;" width="4" x="796.3271" y="159.3983"/><text fill="#000000" font-family="sans-serif" font-size="14" font-style="italic" lengthAdjust="spacing" textLength="70.2871" x="722.04" y="181.9334">&#171;external&#187;</text><text fill="#000000" font-family="sans-serif" font-size="14" lengthAdjust="spacing" textLength="47.1885" x="733.5893" y="198.4217">GitHub</text></g><!--entity pathoplexus--><g class="entity" data-entity="pathoplexus" data-source-line="10" data-uid="ent0005" id="entity_pathoplexus"><rect fill="#F1F1F1" height="62.9766" rx="2.5" ry="2.5" style="stroke:#181818;stroke-width:0.5;stroke-dasharray:7.0,7.0;" width="123.0635" x="853.65" y="148.3983"/><rect fill="#F1F1F1" height="10" style="stroke:#181818;stroke-width:0.5;stroke-dasharray:7.0,7.0;" width="15" x="956.7135" y="153.3983"/><rect fill="#F1F1F1" height="2" style="stroke:#181818;stroke-width:0.5;stroke-dasharray:7.0,7.0;" width="4" x="954.7135" y="155.3983"/><rect fill="#F1F1F1" height="2" style="stroke:#181818;stroke-width:0.5;stroke-dasharray:7.0,7.0;" width="4" x="954.7135" y="159.3983"/><text fill="#000000" font-family="sans-serif" font-size="14" font-style="italic" lengthAdjust="spacing" textLength="70.2871" x="875.0382" y="181.9334">&#171;external&#187;</text><text fill="#000000" font-family="sans-serif" font-size="14" lengthAdjust="spacing" textLength="83.0635" x="868.65" y="198.4217">Pathoplexus</text></g><!--entity vemi--><g class="entity" data-entity="vemi" data-source-line="11" data-uid="ent0006" id="entity_vemi"><path d="M513.3594,534.5516 C517.629,524.3326 527.0861,523.1528 533.1479,532.7631 C539.3563,522.8406 548.8752,522.8272 555.2788,532.5432 C561.3634,525.4025 567.1147,525.8212 572.7381,533.1015 C577.2435,523.7764 585.7793,523.1049 592.1617,530.9822 C596.3206,519.3608 605.6183,520.804 612.4444,528.1265 C619.2059,516.4766 625.8912,516.2444 633.3487,527.491 C637.4906,518.186 645.6155,520.1844 650.2481,526.9759 C658.3951,519.054 665.4261,519.0951 670.5824,530.1761 C676.7162,519.7573 684.251,520.971 691.3464,529.0995 C698.8226,519.7973 704.9955,519.6237 711.1609,530.3934 C719.1021,521.836 725.4735,522.6715 731.0727,532.8786 C737.415,522.6424 746.7155,524.448 751.4777,534.4701 C757.1494,525.5632 764.5065,526.6632 768.9857,535.6376 C774.6698,526.3772 780.6932,524.0105 788.2765,533.7046 C792.3596,534.8802 793.141,537.2459 791.136,540.8558 C796.1415,542.4357 797.1418,545.8387 793.0874,549.4708 C795.7193,553.0281 794.4462,555.487 790.2932,556.246 C794.2631,560.1257 793.2881,564.7562 788.0724,566.6812 C782.0906,576.0144 775.9878,576.2081 770.0298,566.6584 C765.0554,575.6505 756.6122,575.5884 751.0263,567.3321 C746.2105,577.817 737.8932,576.9315 731.9504,568.4666 C725.4043,578.413 715.0758,577.4613 710.3712,566.5604 C704.3091,576.3024 698.0287,577.9002 690.8619,567.6377 C686.8351,575.5853 678.6037,578.0933 673.3979,568.8343 C668.819,579.7259 658.532,581.0078 652.3832,570.3664 C646.438,579.9976 637.9593,579.6088 632.457,569.9098 C626.3223,577.1758 617.9069,577.4987 613.5701,567.8967 C608.4955,579.4866 598.9802,580.5661 591.8996,569.845 C584.8362,577.8215 577.9931,575.9236 574.2176,566.5032 C567.9107,575.8636 559.0435,574.5826 553.7353,565.4 C548.2536,576.1468 538.9536,575.0531 532.6656,566.2698 C526.5077,575.4805 517.803,575.4289 512.874,565.0295 C508.2296,563.5028 506.902,560.2522 510.8273,556.6358 C506.9764,555.9882 505.4535,552.9016 507.5011,549.5033 C504.2923,545.3721 505.1124,542.502 510.3858,541.3847 C508.1499,537.7978 509.6318,535.5434 513.3594,534.5516" fill="#F1F1F1" style="stroke:#181818;stroke-width:0.5;"/><text fill="#000000" font-family="sans-serif" font-size="14" lengthAdjust="spacing" textLength="260.873" x="519.75" y="553.6434">Various external mutation information</text></g><!--link user to website--><g class="link" data-entity-1="user" data-entity-2="website" data-source-line="21" data-uid="lnk13" id="link_user_website"><path d="M36.7,179.8883 C56.28,179.8883 84.84,179.8883 113.33,179.8883" fill="none" id="user-to-website" style="stroke:#181818;stroke-width:1;"/><polygon fill="#181818" points="119.33,179.8883,110.33,175.8883,114.33,179.8883,110.33,183.8883,119.33,179.8883" style="stroke:#181818;stroke-width:1;"/><text fill="#000000" font-family="sans-serif" font-size="13" lengthAdjust="spacing" textLength="47.9375" x="54.57" y="173.4566">Interact</text></g><!--link website to backend--><g class="link" data-entity-1="website" data-entity-2="backend" data-source-line="22" data-uid="lnk14" id="link_website_backend"><path d="M166.51,203.4283 C166.88,228.7183 167.3923,263.4989 167.7623,288.8089" fill="none" id="website-to-backend" style="stroke:#181818;stroke-width:1;"/><polygon fill="#181818" points="167.85,294.8083,171.718,285.7508,167.7769,289.8088,163.7189,285.8677,167.85,294.8083" style="stroke:#181818;stroke-width:1;"/><text fill="#000000" font-family="sans-serif" font-size="13" lengthAdjust="spacing" textLength="250.9419" x="168.36" y="261.7066">Users, subscriptions, collections, config</text></g><!--link backend to db--><g class="link" data-entity-1="backend" data-entity-2="db" data-source-line="23" data-uid="lnk15" id="link_backend_db"><path d="M200.32,341.8483 C231.49,363.6483 273.5833,393.0893 304.5933,414.7793" fill="none" id="backend-to-db" style="stroke:#181818;stroke-width:1;"/><polygon fill="#181818" points="309.51,418.2183,304.4277,409.7821,305.4128,415.3525,299.8424,416.3376,309.51,418.2183" style="stroke:#181818;stroke-width:1;"/><text fill="#000000" font-family="sans-serif" font-size="13" lengthAdjust="spacing" textLength="41.6216" x="266.04" y="385.1866">Persist</text></g><!--link website to loculus--><g class="link" data-entity-1="website" data-entity-2="loculus" data-source-line="24" data-uid="lnk16" id="link_website_loculus"><path d="M212.84,179.8883 C259.13,179.8883 323.67,179.8883 369.85,179.8883" fill="none" id="website-to-loculus" style="stroke:#181818;stroke-width:1;"/><polygon fill="#181818" points="375.85,179.8883,366.85,175.8883,370.85,179.8883,366.85,183.8883,375.85,179.8883" style="stroke:#181818;stroke-width:1;"/><text fill="#000000" font-family="sans-serif" font-size="13" lengthAdjust="spacing" textLength="127.1055" x="230.94" y="173.4566">Query genomic data</text></g><!--reverse link backend to seeder--><g class="link" data-entity-1="backend" data-entity-2="seeder" data-source-line="25" data-uid="lnk18" id="link_backend_seeder"><path d="M162.6948,347.995 C157.8948,378.415 154.94,426.9683 179.18,464.1083 C197.72,492.5183 229.32,511.9083 259.25,524.7783" fill="none" id="backend-backto-seeder" style="stroke:#181818;stroke-width:1;"/><polygon fill="#181818" points="163.63,342.0683,158.2761,350.3348,162.8507,347.0072,166.1784,351.5817,163.63,342.0683" style="stroke:#181818;stroke-width:1;"/><text fill="#000000" font-family="sans-serif" font-size="13" lengthAdjust="spacing" textLength="101.1436" x="180.18" y="446.4366">Seed collections</text></g><!--link loculus to ncbi--><g class="link" data-entity-1="loculus" data-entity-2="ncbi" data-source-line="26" data-uid="lnk19" id="link_loculus_ncbi"><path d="M468.41,179.8883 C495.51,179.8883 523.95,179.8883 552.65,179.8883" fill="none" id="loculus-to-ncbi" style="stroke:#181818;stroke-width:1;"/><polygon fill="#181818" points="558.65,179.8883,549.65,175.8883,553.65,179.8883,549.65,183.8883,558.65,179.8883" style="stroke:#181818;stroke-width:1;"/><text fill="#000000" font-family="sans-serif" font-size="13" lengthAdjust="spacing" textLength="54.2852" x="486.56" y="173.4566">Pull data</text></g><!--link seeder to vemi--><g class="link" data-entity-1="seeder" data-entity-2="vemi" data-source-line="27" data-uid="lnk20" id="link_seeder_vemi"><path d="M414.26,548.3583 C441.69,548.3583 467.38,548.3583 498.45,548.3583" fill="none" id="seeder-to-vemi" style="stroke:#181818;stroke-width:1;"/><polygon fill="#181818" points="504.45,548.3583,495.45,544.3583,499.45,548.3583,495.45,552.3583,504.45,548.3583" style="stroke:#181818;stroke-width:1;"/><text fill="#000000" font-family="sans-serif" font-size="13" lengthAdjust="spacing" textLength="54.2852" x="432.42" y="541.9266">Pull data</text></g><!--link website to github--><g class="link" data-entity-1="website" data-entity-2="github" data-source-line="28" data-uid="lnk21" id="link_website_github"><path d="M202.81,156.2783 C240.34,133.5883 301.24,100.8883 359.18,87.7683 C430.71,71.5783 623.16,55.8483 689.18,87.7683 C714.9,100.2083 731.3222,121.3908 743.6422,142.7508" fill="none" id="website-to-github" style="stroke:#181818;stroke-width:1;"/><polygon fill="#181818" points="746.64,147.9483,745.6083,138.1536,744.1419,143.6171,738.6784,142.1506,746.64,147.9483" style="stroke:#181818;stroke-width:1;"/><text fill="#000000" font-family="sans-serif" font-size="13" lengthAdjust="spacing" textLength="79.8408" x="555.68" y="73.2166">Authenticate</text></g><!--link website to pathoplexus--><g class="link" data-entity-1="website" data-entity-2="pathoplexus" data-source-line="29" data-uid="lnk22" id="link_website_pathoplexus"><path d="M202.81,156.2783 C240.34,133.5883 301.24,100.8883 359.18,87.7683 C462.57,64.3583 739.87,43.4883 836.18,87.7683 C863.17,100.1783 881.1859,121.8018 894.8059,143.2718" fill="none" id="website-to-pathoplexus" style="stroke:#181818;stroke-width:1;"/><polygon fill="#181818" points="898.02,148.3383,896.5766,138.5958,895.3416,144.1162,889.8212,142.8812,898.02,148.3383" style="stroke:#181818;stroke-width:1;"/><text fill="#000000" font-family="sans-serif" font-size="13" lengthAdjust="spacing" textLength="127.1055" x="352.68" y="73.2166">Query genomic data</text></g><!--link db to seeder--><!--SRC=[TP9DJ-Gm38Rl-HLMplJ05Q6HTa0298H0ezqze3tamqmZqgJA1mjQyT_NJgVGAQANElNZjw_j55SyWhp2i1lHb5G7wE0MNz33gHGYFximggG6C74OOy1Gpi_njM0Aocysy4y0FTkOBAPTUICfgtAFLhmBeKo92NvcJA0oL7gB3n6GTnVR6mb7OaG5ezsIkdBbkkgltDwLlkebUQzA7qUFhpL_nSVFf30-LWlobqekrWmp24CjghWOm8Mdc8OMIov-mS494Q8zdfCyDF_fuJVgx0fopTyfN05RPPunM0Rq5Au0UH6z9tcsiKEaeJO7kOMDjQeehJB2vHnGtkgLpcqqrLDpbFDJo0lX5K2Nkiri3yv0tWJgdrObnVoniqGS_3716ymdaAlE9hcHpT7HV3XjX_3azbBCLKt2Qgw-fsANb_9iuE2AWOUAwGts6EBWJEjFYgbXwEgn4nx9yiTIp3fDb2zF-sNrVYN4QTxZAdtaQRfJJFoefQSnEgCAhg35JVhEFFNTFVREMWn_gEAmlFy0]--></g></svg>