<svg xmlns="http://www.w3.org/2000/svg" xmlns:xlink="http://www.w3.org/1999/xlink" contentStyleType="text/css" data-diagram-type="DESCRIPTION" height="248px" preserveAspectRatio="none" style="width:410px;height:248px;background:#FFFFFF;" version="1.1" viewBox="0 0 410 248" width="410px" zoomAndPan="magnify"><title>GenSpectrum Overview</title><defs/><g><text fill="#000000" font-family="sans-serif" font-size="14" font-weight="bold" lengthAdjust="spacing" textLength="167.7266" x="114.526" y="23.5352">GenSpectrum Overview</text><!--entity user--><g class="entity" data-entity="user" data-source-line="3" data-uid="ent0002" id="entity_user"><ellipse cx="21.1826" cy="51.4883" fill="#F1F1F1" rx="8" ry="8" style="stroke:#181818;stroke-width:0.5;"/><path d="M21.1826,59.4883 L21.1826,86.4883 M8.1826,67.4883 L34.1826,67.4883 M21.1826,86.4883 L8.1826,101.4883 M21.1826,86.4883 L34.1826,101.4883" fill="none" style="stroke:#181818;stroke-width:0.5;"/><text fill="#000000" font-family="sans-serif" font-size="14" lengthAdjust="spacing" textLength="30.3652" x="6" y="116.5234">User</text></g><!--entity gs--><g class="entity" data-entity="gs" data-source-line="5" data-uid="ent0003" id="entity_gs"><rect fill="#F1F1F1" height="46.4883" rx="2.5" ry="2.5" style="stroke:#181818;stroke-width:0.5;" width="130.6514" x="71.86" y="57.9883"/><rect fill="#F1F1F1" height="10" style="stroke:#181818;stroke-width:0.5;" width="15" x="182.5114" y="62.9883"/><rect fill="#F1F1F1" height="2" style="stroke:#181818;stroke-width:0.5;" width="4" x="180.5114" y="64.9883"/><rect fill="#F1F1F1" height="2" style="stroke:#181818;stroke-width:0.5;" width="4" x="180.5114" y="68.9883"/><text fill="#000000" font-family="sans-serif" font-size="14" lengthAdjust="spacing" textLength="90.6514" x="86.86" y="91.5234">GenSpectrum</text></g><!--entity ncbi--><g class="entity" data-entity="ncbi" data-source-line="6" data-uid="ent0004" id="entity_ncbi"><rect fill="#F1F1F1" height="46.4883" rx="2.5" ry="2.5" style="stroke:#181818;stroke-width:0.5;" width="72.1152" x="34.13" y="196.4783"/><rect fill="#F1F1F1" height="10" style="stroke:#181818;stroke-width:0.5;" width="15" x="86.2452" y="201.4783"/><rect fill="#F1F1F1" height="2" style="stroke:#181818;stroke-width:0.5;" width="4" x="84.2452" y="203.4783"/><rect fill="#F1F1F1" height="2" style="stroke:#181818;stroke-width:0.5;" width="4" x="84.2452" y="207.4783"/><text fill="#000000" font-family="sans-serif" font-size="14" lengthAdjust="spacing" textLength="32.1152" x="49.13" y="230.0134">NCBI</text></g><!--entity pathoplexus--><g class="entity" data-entity="pathoplexus" data-source-line="7" data-uid="ent0005" id="entity_pathoplexus"><rect fill="#F1F1F1" height="46.4883" rx="2.5" ry="2.5" style="stroke:#181818;stroke-width:0.5;" width="123.0635" x="141.65" y="196.4783"/><rect fill="#F1F1F1" height="10" style="stroke:#181818;stroke-width:0.5;" width="15" x="244.7135" y="201.4783"/><rect fill="#F1F1F1" height="2" style="stroke:#181818;stroke-width:0.5;" width="4" x="242.7135" y="203.4783"/><rect fill="#F1F1F1" height="2" style="stroke:#181818;stroke-width:0.5;" width="4" x="242.7135" y="207.4783"/><text fill="#000000" font-family="sans-serif" font-size="14" lengthAdjust="spacing" textLength="83.0635" x="156.65" y="230.0134">Pathoplexus</text></g><!--entity github--><g class="entity" data-entity="github" data-source-line="8" data-uid="ent0006" id="entity_github"><rect fill="#F1F1F1" height="46.4883" rx="2.5" ry="2.5" style="stroke:#181818;stroke-width:0.5;" width="87.1885" x="317.59" y="57.9883"/><rect fill="#F1F1F1" height="10" style="stroke:#181818;stroke-width:0.5;" width="15" x="384.7785" y="62.9883"/><rect fill="#F1F1F1" height="2" style="stroke:#181818;stroke-width:0.5;" width="4" x="382.7785" y="64.9883"/><rect fill="#F1F1F1" height="2" style="stroke:#181818;stroke-width:0.5;" width="4" x="382.7785" y="68.9883"/><text fill="#000000" font-family="sans-serif" font-size="14" lengthAdjust="spacing" textLength="47.1885" x="332.59" y="91.5234">GitHub</text></g><!--link user to gs--><g class="link" data-entity-1="user" data-entity-2="gs" data-source-line="10" data-uid="lnk7" id="link_user_gs"><path d="M36.59,81.2383 C48.25,81.2383 53.9,81.2383 65.56,81.2383" fill="none" id="user-to-gs" style="stroke:#181818;stroke-width:1;"/><polygon fill="#181818" points="71.56,81.2383,62.56,77.2383,66.56,81.2383,62.56,85.2383,71.56,81.2383" style="stroke:#181818;stroke-width:1;"/></g><!--link gs to ncbi--><g class="link" data-entity-1="gs" data-entity-2="ncbi" data-source-line="11" data-uid="lnk8" id="link_gs_ncbi"><path d="M126.12,104.7783 C113.7,130.0583 96.324,165.4623 83.904,190.7623" fill="none" id="gs-to-ncbi" style="stroke:#181818;stroke-width:1;"/><polygon fill="#181818" points="81.26,196.1483,88.8167,189.832,83.4634,191.6599,81.6354,186.3066,81.26,196.1483" style="stroke:#181818;stroke-width:1;"/><text fill="#000000" font-family="sans-serif" font-size="13" lengthAdjust="spacing" textLength="54.2852" x="104.68" y="163.0466">Pull data</text></g><!--link gs to pathoplexus--><g class="link" data-entity-1="gs" data-entity-2="pathoplexus" data-source-line="12" data-uid="lnk9" id="link_gs_pathoplexus"><path d="M148.08,104.7783 C160.31,130.0583 177.417,165.4472 189.657,190.7472" fill="none" id="gs-to-pathoplexus" style="stroke:#181818;stroke-width:1;"/><polygon fill="#181818" points="192.27,196.1483,191.9512,186.3046,190.0925,191.6473,184.7497,189.7886,192.27,196.1483" style="stroke:#181818;stroke-width:1;"/><text fill="#000000" font-family="sans-serif" font-size="13" lengthAdjust="spacing" textLength="127.1055" x="177.09" y="163.0466">Query genomic data</text></g><!--link gs to github--><g class="link" data-entity-1="gs" data-entity-2="github" data-source-line="13" data-uid="lnk10" id="link_gs_github"><path d="M202.88,81.2383 C239.67,81.2383 278.55,81.2383 311.12,81.2383" fill="none" id="gs-to-github" style="stroke:#181818;stroke-width:1;"/><polygon fill="#181818" points="317.12,81.2383,308.12,77.2383,312.12,81.2383,308.12,85.2383,317.12,81.2383" style="stroke:#181818;stroke-width:1;"/><text fill="#000000" font-family="sans-serif" font-size="13" lengthAdjust="spacing" textLength="79.8408" x="220.55" y="74.8066">Authenticate</text></g><!--SRC=[LOvD3W8X38NtdA9XFnTmOQ8kr8q_CHw0OPeP4WO8jAFUNi14STMVz_gzaY6B8FVeRW4rHPxXl61S33wa44gJZt1F644bu5o5q7uEtg6ZlojP36DgrTDkUwnhftlJ2XT5amyMdvog7dxp7ztGWViFsD34lH3b0-XYjovHOu9ko6t1mofZsLeO52dvbHfoSLmPumj6T7uskh5MO8qehWtJb1ymMX5AyGO0]--></g></svg>