<svg xmlns="http://www.w3.org/2000/svg" xmlns:xlink="http://www.w3.org/1999/xlink" contentStyleType="text/css" data-diagram-type="SEQUENCE" height="300px" preserveAspectRatio="none" style="width:516px;height:300px;background:#FFFFFF;" version="1.1" viewBox="0 0 516 300" width="516px" zoomAndPan="magnify"><defs/><g><g><title>User</title><rect fill="#000000" fill-opacity="0.00000" height="223.2361" width="8" x="23.3089" y="39.0679"/><line style="stroke:#181818;stroke-width:0.5;stroke-dasharray:5.0,5.0;" x1="27" x2="27" y1="39.0679" y2="262.304"/></g><g><title>Website</title><rect fill="#000000" fill-opacity="0.00000" height="223.2361" width="8" x="201.1121" y="39.0679"/><line style="stroke:#181818;stroke-width:0.5;stroke-dasharray:5.0,5.0;" x1="204.7152" x2="204.7152" y1="39.0679" y2="262.304"/></g><g><title>Dashboard components</title><rect fill="#000000" fill-opacity="0.00000" height="223.2361" width="8" x="330.8677" y="39.0679"/><line style="stroke:#181818;stroke-width:0.5;stroke-dasharray:5.0,5.0;" x1="334.509" x2="334.509" y1="39.0679" y2="262.304"/></g><g><title>LAPIS</title><rect fill="#000000" fill-opacity="0.00000" height="223.2361" width="8" x="480.7078" y="39.0679"/><line style="stroke:#181818;stroke-width:0.5;stroke-dasharray:5.0,5.0;" x1="484.1159" x2="484.1159" y1="39.0679" y2="262.304"/></g><g class="participant participant-head" data-participant="User"><rect fill="#E2E2F0" height="33.0679" rx="2.5" ry="2.5" style="stroke:#181818;stroke-width:0.5;" width="44.6179" x="5" y="5"/><text fill="#000000" font-family="sans-serif" font-size="14" lengthAdjust="spacing" textLength="30.6179" x="12" y="26.9659">User</text></g><g class="participant participant-tail" data-participant="User"><rect fill="#E2E2F0" height="33.0679" rx="2.5" ry="2.5" style="stroke:#181818;stroke-width:0.5;" width="44.6179" x="5" y="261.304"/><text fill="#000000" font-family="sans-serif" font-size="14" lengthAdjust="spacing" textLength="30.6179" x="12" y="283.27">User</text></g><g class="participant participant-head" data-participant="Website"><rect fill="#E2E2F0" height="33.0679" rx="2.5" ry="2.5" style="stroke:#181818;stroke-width:0.5;" width="66.7938" x="171.7152" y="5"/><text fill="#000000" font-family="sans-serif" font-size="14" lengthAdjust="spacing" textLength="52.7938" x="178.7152" y="26.9659">Website</text></g><g class="participant participant-tail" data-participant="Website"><rect fill="#E2E2F0" height="33.0679" rx="2.5" ry="2.5" style="stroke:#181818;stroke-width:0.5;" width="66.7938" x="171.7152" y="261.304"/><text fill="#000000" font-family="sans-serif" font-size="14" lengthAdjust="spacing" textLength="52.7938" x="178.7152" y="283.27">Website</text></g><g class="participant participant-head" data-participant="components"><rect fill="#E2E2F0" height="33.0679" rx="2.5" ry="2.5" style="stroke:#181818;stroke-width:0.5;" width="172.7174" x="248.509" y="5"/><text fill="#000000" font-family="sans-serif" font-size="14" lengthAdjust="spacing" textLength="158.7174" x="255.509" y="26.9659">Dashboard components</text></g><g class="participant participant-tail" data-participant="components"><rect fill="#E2E2F0" height="33.0679" rx="2.5" ry="2.5" style="stroke:#181818;stroke-width:0.5;" width="172.7174" x="248.509" y="261.304"/><text fill="#000000" font-family="sans-serif" font-size="14" lengthAdjust="spacing" textLength="158.7174" x="255.509" y="283.27">Dashboard components</text></g><g class="participant participant-head" data-participant="LAPIS"><rect fill="#E2E2F0" height="33.0679" rx="2.5" ry="2.5" style="stroke:#181818;stroke-width:0.5;" width="51.1839" x="459.1159" y="5"/><text fill="#000000" font-family="sans-serif" font-size="14" lengthAdjust="spacing" textLength="37.1839" x="466.1159" y="26.9659">LAPIS</text></g><g class="participant participant-tail" data-participant="LAPIS"><rect fill="#E2E2F0" height="33.0679" rx="2.5" ry="2.5" style="stroke:#181818;stroke-width:0.5;" width="51.1839" x="459.1159" y="261.304"/><text fill="#000000" font-family="sans-serif" font-size="14" lengthAdjust="spacing" textLength="37.1839" x="466.1159" y="283.27">LAPIS</text></g><g class="message" data-participant-1="User" data-participant-2="Website"><polygon fill="#181818" points="193.1121,68.7739,203.1121,72.7739,193.1121,76.7739,197.1121,72.7739" style="stroke:#181818;stroke-width:1;"/><line style="stroke:#181818;stroke-width:1;" x1="27.3089" x2="199.1121" y1="72.7739" y2="72.7739"/><text fill="#000000" font-family="sans-serif" font-size="13" lengthAdjust="spacing" textLength="153.8031" x="34.3089" y="66.9649">specify filters on the data</text></g><g class="message" data-participant-1="Website" data-participant-2="Website"><line style="stroke:#181818;stroke-width:1;" x1="205.1121" x2="247.1121" y1="104.4799" y2="104.4799"/><line style="stroke:#181818;stroke-width:1;" x1="247.1121" x2="247.1121" y1="104.4799" y2="117.4799"/><line style="stroke:#181818;stroke-width:1;" x1="206.1121" x2="247.1121" y1="117.4799" y2="117.4799"/><polygon fill="#181818" points="216.1121,113.4799,206.1121,117.4799,216.1121,121.4799,212.1121,117.4799" style="stroke:#181818;stroke-width:1;"/><text fill="#000000" font-family="sans-serif" font-size="13" lengthAdjust="spacing" textLength="112.2161" x="212.1121" y="98.6709">store filters in URL</text></g><g class="message" data-participant-1="Website" data-participant-2="components"><polygon fill="#181818" points="322.8677,145.186,332.8677,149.186,322.8677,153.186,326.8677,149.186" style="stroke:#181818;stroke-width:1;"/><line style="stroke:#181818;stroke-width:1;" x1="205.1121" x2="328.8677" y1="149.186" y2="149.186"/><text fill="#000000" font-family="sans-serif" font-size="13" lengthAdjust="spacing" textLength="97.6041" x="212.1121" y="143.377">pass LAPIS filter</text></g><g class="message" data-participant-1="components" data-participant-2="LAPIS"><polygon fill="#181818" points="472.7078,176.892,482.7078,180.892,472.7078,184.892,476.7078,180.892" style="stroke:#181818;stroke-width:1;"/><line style="stroke:#181818;stroke-width:1;" x1="334.8677" x2="478.7078" y1="180.892" y2="180.892"/><text fill="#000000" font-family="sans-serif" font-size="13" lengthAdjust="spacing" textLength="122.3691" x="341.8677" y="175.083">query genomic data</text></g><g class="message" data-participant-1="LAPIS" data-participant-2="components"><polygon fill="#181818" points="345.8677,208.598,335.8677,212.598,345.8677,216.598,341.8677,212.598" style="stroke:#181818;stroke-width:1;"/><line style="stroke:#181818;stroke-width:1;stroke-dasharray:2.0,2.0;" x1="339.8677" x2="483.7078" y1="212.598" y2="212.598"/><text fill="#000000" font-family="sans-serif" font-size="13" lengthAdjust="spacing" textLength="125.8401" x="351.8677" y="206.789">return genomic data</text></g><g class="message" data-participant-1="components" data-participant-2="User"><polygon fill="#181818" points="38.3089,240.304,28.3089,244.304,38.3089,248.304,34.3089,244.304" style="stroke:#181818;stroke-width:1;"/><line style="stroke:#181818;stroke-width:1;stroke-dasharray:2.0,2.0;" x1="32.3089" x2="333.8677" y1="244.304" y2="244.304"/><text fill="#000000" font-family="sans-serif" font-size="13" lengthAdjust="spacing" textLength="138.6711" x="44.3089" y="238.495">visualize genomic data</text></g><!--SRC=[NO_13e9034Jl-nKDTtw0Wuc95nCEH4Cy5oZI17PnMqpmwqKHtVNOcJVJja2lNFE8Lg4KygO8X0jLmagHbXnGkigXRw1sm-WiMPK4K88n2kJxudWsvbKEwMxhX0naf9hR6LhkbRo0iw0TGOEAPgFYW3fFNvmjbASy97y7BF288klkJy84zWAlLWQtYVmCLx9ku7fTlbhfVwCddRoDqR1puTzFPd1dcR3d1yNm4m00]--></g></svg>