<svg xmlns="http://www.w3.org/2000/svg" xmlns:xlink="http://www.w3.org/1999/xlink" contentStyleType="text/css" data-diagram-type="SEQUENCE" height="477px" preserveAspectRatio="none" style="width:704px;height:477px;background:#FFFFFF;" version="1.1" viewBox="0 0 704 477" width="704px" zoomAndPan="magnify"><defs/><g><g><title>User</title><rect fill="#000000" fill-opacity="0.00000" height="400.4722" width="8" x="23.3089" y="39.0679"/><line style="stroke:#181818;stroke-width:0.5;stroke-dasharray:5.0,5.0;" x1="27" x2="27" y1="39.0679" y2="439.5401"/></g><g><title>Website</title><rect fill="#000000" fill-opacity="0.00000" height="400.4722" width="8" x="214.9961" y="39.0679"/><line style="stroke:#181818;stroke-width:0.5;stroke-dasharray:5.0,5.0;" x1="218.5992" x2="218.5992" y1="39.0679" y2="439.5401"/></g><g><title>GitHubApp</title><rect fill="#000000" fill-opacity="0.00000" height="400.4722" width="8" x="368.7752" y="39.0679"/><line style="stroke:#181818;stroke-width:0.5;stroke-dasharray:5.0,5.0;" x1="372.4454" x2="372.4454" y1="39.0679" y2="439.5401"/></g><g><title>Backend</title><rect fill="#000000" fill-opacity="0.00000" height="400.4722" width="8" x="457.259" y="39.0679"/><line style="stroke:#181818;stroke-width:0.5;stroke-dasharray:5.0,5.0;" x1="461.1051" x2="461.1051" y1="39.0679" y2="439.5401"/></g><g><title>PostgresDB</title><rect fill="#000000" fill-opacity="0.00000" height="400.4722" width="8" x="547.9197" y="39.0679"/><line style="stroke:#181818;stroke-width:0.5;stroke-dasharray:5.0,5.0;" x1="551.4129" x2="551.4129" y1="39.0679" y2="439.5401"/></g><g><title>PostgresDB</title><rect fill="#000000" fill-opacity="0.00000" height="400.4722" width="8" x="648.9334" y="39.0679"/><line style="stroke:#181818;stroke-width:0.5;stroke-dasharray:5.0,5.0;" x1="652.4266" x2="652.4266" y1="39.0679" y2="439.5401"/></g><g class="participant participant-head" data-participant="User"><rect fill="#E2E2F0" height="33.0679" rx="2.5" ry="2.5" style="stroke:#181818;stroke-width:0.5;" width="44.6179" x="5" y="5"/><text fill="#000000" font-family="sans-serif" font-size="14" lengthAdjust="spacing" textLength="30.6179" x="12" y="26.9659">User</text></g><g class="participant participant-tail" data-participant="User"><rect fill="#E2E2F0" height="33.0679" rx="2.5" ry="2.5" style="stroke:#181818;stroke-width:0.5;" width="44.6179" x="5" y="438.5401"/><text fill="#000000" font-family="sans-serif" font-size="14" lengthAdjust="spacing" textLength="30.6179" x="12" y="460.5061">User</text></g><g class="participant participant-head" data-participant="Website"><rect fill="#E2E2F0" height="33.0679" rx="2.5" ry="2.5" style="stroke:#181818;stroke-width:0.5;" width="66.7938" x="185.5992" y="5"/><text fill="#000000" font-family="sans-serif" font-size="14" lengthAdjust="spacing" textLength="52.7938" x="192.5992" y="26.9659">Website</text></g><g class="participant participant-tail" data-participant="Website"><rect fill="#E2E2F0" height="33.0679" rx="2.5" ry="2.5" style="stroke:#181818;stroke-width:0.5;" width="66.7938" x="185.5992" y="438.5401"/><text fill="#000000" font-family="sans-serif" font-size="14" lengthAdjust="spacing" textLength="52.7938" x="192.5992" y="460.5061">Website</text></g><g class="participant participant-head" data-participant="gh"><rect fill="#E2E2F0" height="33.0679" rx="2.5" ry="2.5" style="stroke:#181818;stroke-width:0.5;" width="86.6597" x="329.4454" y="5"/><text fill="#000000" font-family="sans-serif" font-size="14" lengthAdjust="spacing" textLength="72.6597" x="336.4454" y="26.9659">GitHubApp</text></g><g class="participant participant-tail" data-participant="gh"><rect fill="#E2E2F0" height="33.0679" rx="2.5" ry="2.5" style="stroke:#181818;stroke-width:0.5;" width="86.6597" x="329.4454" y="438.5401"/><text fill="#000000" font-family="sans-serif" font-size="14" lengthAdjust="spacing" textLength="72.6597" x="336.4454" y="460.5061">GitHubApp</text></g><g class="participant participant-head" data-participant="Backend"><rect fill="#E2E2F0" height="33.0679" rx="2.5" ry="2.5" style="stroke:#181818;stroke-width:0.5;" width="70.3078" x="426.1051" y="5"/><text fill="#000000" font-family="sans-serif" font-size="14" lengthAdjust="spacing" textLength="56.3078" x="433.1051" y="26.9659">Backend</text></g><g class="participant participant-tail" data-participant="Backend"><rect fill="#E2E2F0" height="33.0679" rx="2.5" ry="2.5" style="stroke:#181818;stroke-width:0.5;" width="70.3078" x="426.1051" y="438.5401"/><text fill="#000000" font-family="sans-serif" font-size="14" lengthAdjust="spacing" textLength="56.3078" x="433.1051" y="460.5061">Backend</text></g><g class="participant participant-head" data-participant="db"><rect fill="#E2E2F0" height="33.0679" rx="2.5" ry="2.5" style="stroke:#181818;stroke-width:0.5;" width="91.0137" x="506.4129" y="5"/><text fill="#000000" font-family="sans-serif" font-size="14" lengthAdjust="spacing" textLength="77.0137" x="513.4129" y="26.9659">PostgresDB</text></g><g class="participant participant-tail" data-participant="db"><rect fill="#E2E2F0" height="33.0679" rx="2.5" ry="2.5" style="stroke:#181818;stroke-width:0.5;" width="91.0137" x="506.4129" y="438.5401"/><text fill="#000000" font-family="sans-serif" font-size="14" lengthAdjust="spacing" textLength="77.0137" x="513.4129" y="460.5061">PostgresDB</text></g><g class="participant participant-head" data-participant="PostgresDB"><rect fill="#E2E2F0" height="33.0679" rx="2.5" ry="2.5" style="stroke:#181818;stroke-width:0.5;" width="91.0137" x="607.4266" y="5"/><text fill="#000000" font-family="sans-serif" font-size="14" lengthAdjust="spacing" textLength="77.0137" x="614.4266" y="26.9659">PostgresDB</text></g><g class="participant participant-tail" data-participant="PostgresDB"><rect fill="#E2E2F0" height="33.0679" rx="2.5" ry="2.5" style="stroke:#181818;stroke-width:0.5;" width="91.0137" x="607.4266" y="438.5401"/><text fill="#000000" font-family="sans-serif" font-size="14" lengthAdjust="spacing" textLength="77.0137" x="614.4266" y="460.5061">PostgresDB</text></g><g class="message" data-participant-1="User" data-participant-2="Website"><polygon fill="#181818" points="206.9961,68.7739,216.9961,72.7739,206.9961,76.7739,210.9961,72.7739" style="stroke:#181818;stroke-width:1;"/><line style="stroke:#181818;stroke-width:1;" x1="27.3089" x2="212.9961" y1="72.7739" y2="72.7739"/><text fill="#000000" font-family="sans-serif" font-size="13" lengthAdjust="spacing" textLength="33.982" x="34.3089" y="66.9649">log in</text></g><g class="message" data-participant-1="Website" data-participant-2="gh"><polygon fill="#181818" points="360.7752,100.4799,370.7752,104.4799,360.7752,108.4799,364.7752,104.4799" style="stroke:#181818;stroke-width:1;"/><line style="stroke:#181818;stroke-width:1;" x1="218.9961" x2="366.7752" y1="104.4799" y2="104.4799"/><text fill="#000000" font-family="sans-serif" font-size="13" lengthAdjust="spacing" textLength="127.5171" x="225.9961" y="98.6709">request GitHub login</text></g><g class="message" data-participant-1="gh" data-participant-2="User"><polygon fill="#181818" points="38.3089,132.186,28.3089,136.186,38.3089,140.186,34.3089,136.186" style="stroke:#181818;stroke-width:1;"/><line style="stroke:#181818;stroke-width:1;" x1="32.3089" x2="371.7752" y1="136.186" y2="136.186"/><text fill="#000000" font-family="sans-serif" font-size="13" lengthAdjust="spacing" textLength="144.1572" x="44.3089" y="130.377">redirect to GitHub login</text></g><g class="message" data-participant-1="User" data-participant-2="gh"><polygon fill="#181818" points="360.7752,163.892,370.7752,167.892,360.7752,171.892,364.7752,167.892" style="stroke:#181818;stroke-width:1;"/><line style="stroke:#181818;stroke-width:1;stroke-dasharray:2.0,2.0;" x1="27.3089" x2="366.7752" y1="167.892" y2="167.892"/><text fill="#000000" font-family="sans-serif" font-size="13" lengthAdjust="spacing" textLength="101.0231" x="34.3089" y="162.083">authorize access</text></g><g class="message" data-participant-1="gh" data-participant-2="Website"><polygon fill="#181818" points="229.9961,195.598,219.9961,199.598,229.9961,203.598,225.9961,199.598" style="stroke:#181818;stroke-width:1;"/><line style="stroke:#181818;stroke-width:1;stroke-dasharray:2.0,2.0;" x1="223.9961" x2="371.7752" y1="199.598" y2="199.598"/><text fill="#000000" font-family="sans-serif" font-size="13" lengthAdjust="spacing" textLength="129.7791" x="235.9961" y="193.789">login token, user info</text></g><g class="message" data-participant-1="Website" data-participant-2="User"><polygon fill="#181818" points="38.3089,227.304,28.3089,231.304,38.3089,235.304,34.3089,231.304" style="stroke:#181818;stroke-width:1;"/><line style="stroke:#181818;stroke-width:1;stroke-dasharray:2.0,2.0;" x1="32.3089" x2="217.9961" y1="231.304" y2="231.304"/><text fill="#000000" font-family="sans-serif" font-size="13" lengthAdjust="spacing" textLength="167.6871" x="44.3089" y="225.495">store login token in cookies</text></g><g class="message" data-participant-1="User" data-participant-2="Website"><polygon fill="#181818" points="206.9961,259.01,216.9961,263.01,206.9961,267.01,210.9961,263.01" style="stroke:#181818;stroke-width:1;"/><line style="stroke:#181818;stroke-width:1;" x1="27.3089" x2="212.9961" y1="263.01" y2="263.01"/><text fill="#000000" font-family="sans-serif" font-size="13" lengthAdjust="spacing" textLength="145.9901" x="34.3089" y="257.201">create new subscription</text></g><g class="message" data-participant-1="Website" data-participant-2="Backend"><polygon fill="#181818" points="449.259,290.716,459.259,294.716,449.259,298.716,453.259,294.716" style="stroke:#181818;stroke-width:1;"/><line style="stroke:#181818;stroke-width:1;" x1="218.9961" x2="455.259" y1="294.716" y2="294.716"/><text fill="#000000" font-family="sans-serif" font-size="13" lengthAdjust="spacing" textLength="145.9901" x="225.9961" y="288.907">create new subscription</text></g><g class="message" data-participant-1="Backend" data-participant-2="PostgresDB"><polygon fill="#181818" points="640.9334,322.4221,650.9334,326.4221,640.9334,330.4221,644.9334,326.4221" style="stroke:#181818;stroke-width:1;"/><line style="stroke:#181818;stroke-width:1;" x1="461.259" x2="646.9334" y1="326.4221" y2="326.4221"/><text fill="#000000" font-family="sans-serif" font-size="13" lengthAdjust="spacing" textLength="110.2531" x="468.259" y="320.6131">store subscription</text></g><g class="message" data-participant-1="PostgresDB" data-participant-2="Backend"><polygon fill="#181818" points="472.259,354.1281,462.259,358.1281,472.259,362.1281,468.259,358.1281" style="stroke:#181818;stroke-width:1;"/><line style="stroke:#181818;stroke-width:1;stroke-dasharray:2.0,2.0;" x1="466.259" x2="651.9334" y1="358.1281" y2="358.1281"/><text fill="#000000" font-family="sans-serif" font-size="13" lengthAdjust="spacing" textLength="14.807" x="478.259" y="352.3191">ok</text></g><g class="message" data-participant-1="Backend" data-participant-2="Website"><polygon fill="#181818" points="229.9961,385.8341,219.9961,389.8341,229.9961,393.8341,225.9961,389.8341" style="stroke:#181818;stroke-width:1;"/><line style="stroke:#181818;stroke-width:1;stroke-dasharray:2.0,2.0;" x1="223.9961" x2="460.259" y1="389.8341" y2="389.8341"/><text fill="#000000" font-family="sans-serif" font-size="13" lengthAdjust="spacing" textLength="125.0211" x="235.9961" y="384.0251">subscription created</text></g><g class="message" data-participant-1="Website" data-participant-2="User"><polygon fill="#181818" points="38.3089,417.5401,28.3089,421.5401,38.3089,425.5401,34.3089,421.5401" style="stroke:#181818;stroke-width:1;"/><line style="stroke:#181818;stroke-width:1;stroke-dasharray:2.0,2.0;" x1="32.3089" x2="217.9961" y1="421.5401" y2="421.5401"/><text fill="#000000" font-family="sans-serif" font-size="13" lengthAdjust="spacing" textLength="160.7451" x="44.3089" y="415.7311">show created subscription</text></g><!--SRC=[VP0nRiCm34Ltdu87Q2xG8K230kte9SWiounDk10TaKA0dBvK4i5I4NGJ_d_y_5JlefAdrGM5es3i-aeuuI2as6XVfDzf-5XNS0BJt7W7vnSCOwFrB3f5bCz37XY7hijhOBSlwV0EFpm1XQu8vaspoH4l2QMip9H1vfX_pyZ4I16zWd9BFNQK89TqvaWt1ESzYjn3_ZQWO2bM_mrI7gPmvgtHjbAK8zQyaU2P5q9vSPgFwEmHy0gI1l6HLYLkRdt-sZzm8GoklhDqQT3AtpNPl6mnJSDw_DbWV7dupDVYjpj_0G00]--></g></svg>